<svg xmlns="http://www.w3.org/2000/svg" width="1200" height="750" viewBox="0 0 1200 750" fill="none">
  <rect width="1200" height="750" fill="#1D1D1B"/>
  <rect x="40" y="40" width="220" height="670" rx="16" fill="#252523" stroke="#3A3A38"/>
  <rect x="80" y="90" width="140" height="12" rx="6" fill="#11A24A"/>
  <rect x="80" y="130" width="120" height="8" rx="4" fill="#666"/>
  <rect x="80" y="160" width="100" height="8" rx="4" fill="#444"/>
  <rect x="80" y="190" width="110" height="8" rx="4" fill="#444"/>
  <rect x="300" y="40" width="860" height="120" rx="16" fill="#252523" stroke="#3A3A38"/>
  <text x="330" y="95" fill="#fff" font-family="system-ui,sans-serif" font-size="28" font-weight="700">Panel de control</text>
  <text x="330" y="125" fill="#aaa" font-family="system-ui,sans-serif" font-size="16">Reservas, ocupaciˇn e ingresos del dÝa</text>
  <rect x="300" y="190" width="260" height="140" rx="16" fill="#252523" stroke="#3A3A38"/>
  <rect x="330" y="220" width="80" height="10" rx="5" fill="#888"/>
  <text x="330" y="280" fill="#11A24A" font-family="system-ui,sans-serif" font-size="36" font-weight="700">24</text>
  <text x="330" y="305" fill="#aaa" font-family="system-ui,sans-serif" font-size="14">Reservas hoy</text>
  <rect x="590" y="190" width="260" height="140" rx="16" fill="#252523" stroke="#3A3A38"/>
  <text x="620" y="280" fill="#11A24A" font-family="system-ui,sans-serif" font-size="36" font-weight="700">78%</text>
  <text x="620" y="305" fill="#aaa" font-family="system-ui,sans-serif" font-size="14">Ocupaciˇn</text>
  <rect x="880" y="190" width="280" height="140" rx="16" fill="#252523" stroke="#3A3A38"/>
  <text x="910" y="280" fill="#11A24A" font-family="system-ui,sans-serif" font-size="36" font-weight="700">$12,400</text>
  <text x="910" y="305" fill="#aaa" font-family="system-ui,sans-serif" font-size="14">Ingresos hoy</text>
  <rect x="300" y="360" width="860" height="350" rx="16" fill="#252523" stroke="#3A3A38"/>
  <rect x="340" y="420" width="780" height="24" rx="6" fill="#333"/>
  <rect x="340" y="470" width="720" height="16" rx="4" fill="#2a2a28"/>
  <rect x="340" y="510" width="680" height="16" rx="4" fill="#2a2a28"/>
  <rect x="340" y="550" width="700" height="16" rx="4" fill="#2a2a28"/>
  <rect x="340" y="590" width="640" height="16" rx="4" fill="#2a2a28"/>
</svg>
