<svg id="Capa_1" data-name="Capa 1" xmlns="http://www.w3.org/2000/svg" viewBox="0 0 44.27 37.95"><defs><style>.cls-1{fill:#1d1d1b;}.cls-2{fill:#0da14a;}</style></defs><path class="cls-1" d="M67.17,21.15l8.14,14c-.2,0-.29,0-.39,0-1.27,0-2.55.08-3.82,0a7.08,7.08,0,0,1-5.93-3.44c-1.59-2.67-3.15-5.35-4.79-8a7.48,7.48,0,0,0-4.75-3.29l-.3-.07c-.61-.11-.6-.11-.33-.67.75-1.55,1.51-3.11,2.23-4.67a1.62,1.62,0,0,1,1.59-1H78.3c.43,0,.46,0,.31.46a9.79,9.79,0,0,1-2.26,3.62,9.63,9.63,0,0,1-5.82,3,26.49,26.49,0,0,1-2.82.05C67.56,21.11,67.42,21.13,67.17,21.15Z" transform="translate(-36.73 -1)"/><path class="cls-1" d="M36.73,35.11c.44-.9.83-1.72,1.22-2.53q3.12-6.39,6.22-12.78,2-4.12,4-8.26a1.68,1.68,0,0,1,1.59-1h6.55l.35,0c-.11.24-.18.44-.27.63q-2.58,5.31-5.15,10.64L45.35,34a3.56,3.56,0,0,1-.27.51,1.34,1.34,0,0,1-1.18.68H37.08A3.12,3.12,0,0,1,36.73,35.11Z" transform="translate(-36.73 -1)"/><path class="cls-1" d="M49.73,8.22c.1-.33.16-.58.26-.82a10.31,10.31,0,0,1,4.64-5.13A9.29,9.29,0,0,1,59.32,1c4,0,7.94-.09,11.9,0a8.29,8.29,0,0,1,8.06,6.69c.09.44.06.47-.39.47H49.73Z" transform="translate(-36.73 -1)"/><path class="cls-2" d="M37.63,38.94c2.74,0,5.14,0,7.53,0,.35,0,.8-.55,1-.94.72-1.42,1.35-2.89,2-4.33q4.3-8.85,8.62-17.71a10.4,10.4,0,0,0,.32-1.2c-2.24,0-4.3.11-6.33,0a2.19,2.19,0,0,0-2.48,1.53c-2.82,6-5.73,11.91-8.58,17.88C39.06,35.55,38.45,37.05,37.63,38.94ZM81,6.05a5.56,5.56,0,0,0-.84-.22c-2.73-.16-5.45-.35-8.17-.45-3.61-.12-7.23,0-10.83-.29A10.91,10.91,0,0,0,54.9,6.5a9.7,9.7,0,0,0-4.59,5.6,5.79,5.79,0,0,0,.82.14c7.31.16,14.62.33,21.93.45C77.3,12.75,80.1,10.42,81,6.05ZM55.36,25.52a3.26,3.26,0,0,0,.72.27c3.71.07,7.41.25,11.11.16a7.72,7.72,0,0,0,7.1-5.52c.38-1.28.22-1.52-1.14-1.55-3.74-.09-7.5,0-11.23-.32-2.32-.19-3.87.19-4.42,2.68a8.25,8.25,0,0,1-.87,1.86C56.23,23.89,55.81,24.66,55.36,25.52Zm-6.1,12.84c6.56,1,10.62-3.83,12.34-9.92a23.13,23.13,0,0,1-3.73,0c-2.68-.44-4.64.16-5.34,3.06a.75.75,0,0,1-.07.12Z" transform="translate(-36.73 -1)"/><path class="cls-2" d="M37.63,38.94c.82-1.89,1.43-3.39,2.12-4.85,2.85-6,5.76-11.91,8.58-17.88a2.19,2.19,0,0,1,2.48-1.53c2,.15,4.09,0,6.33,0a10.4,10.4,0,0,1-.32,1.2q-4.3,8.86-8.62,17.71c-.69,1.44-1.32,2.91-2,4.33-.2.39-.65.93-1,.94C42.77,39,40.37,38.94,37.63,38.94Z" transform="translate(-36.73 -1)"/><path class="cls-2" d="M81,6.05c-.9,4.37-3.7,6.7-7.94,6.64-7.31-.12-14.62-.29-21.93-.45a5.79,5.79,0,0,1-.82-.14A9.7,9.7,0,0,1,54.9,6.5a10.91,10.91,0,0,1,6.26-1.41c3.6.25,7.22.17,10.83.29,2.72.1,5.44.29,8.17.45A5.56,5.56,0,0,1,81,6.05Z" transform="translate(-36.73 -1)"/><path class="cls-2" d="M55.36,25.52c.45-.86.87-1.63,1.27-2.42a8.25,8.25,0,0,0,.87-1.86c.55-2.49,2.1-2.87,4.42-2.68,3.73.31,7.49.23,11.23.32,1.36,0,1.52.27,1.14,1.55A7.72,7.72,0,0,1,67.19,26c-3.7.09-7.4-.09-11.11-.16A3.26,3.26,0,0,1,55.36,25.52Z" transform="translate(-36.73 -1)"/><path class="cls-2" d="M49.26,38.36l3.2-6.77a.75.75,0,0,0,.07-.12c.7-2.9,2.66-3.5,5.34-3.06a23.13,23.13,0,0,0,3.73,0C59.88,34.53,55.82,39.36,49.26,38.36Z" transform="translate(-36.73 -1)"/></svg>