<svg id="Capa_1" data-name="Capa 1" xmlns="http://www.w3.org/2000/svg" viewBox="0 0 115.37 30.25"><defs><style>.cls-1{fill:#1d1d1b;}.cls-2{fill:#0da14a;}</style></defs><path class="cls-1" d="M35.82,16.58A8.71,8.71,0,0,1,34,19.74a7.67,7.67,0,0,1-4.75,2.62,22.2,22.2,0,0,1-2.31.05l-.44,0,6.64,12.17c-.16,0-.23,0-.31,0-1,0-2.08.06-3.12,0a5.69,5.69,0,0,1-4.84-3c-1.3-2.32-2.58-4.66-3.91-7a6.2,6.2,0,0,0-3.88-2.87l-.25-.06c-.49-.1-.48-.1-.26-.58.61-1.36,1.23-2.72,1.82-4.08a1.31,1.31,0,0,1,1.3-.92h15.9" transform="translate(-1.63 -4.85)"/><path class="cls-1" d="M1.63,34.62c.36-.78.68-1.5,1-2.21C4.32,28.69,6,25,7.7,21.26q1.63-3.6,3.25-7.2a1.38,1.38,0,0,1,1.3-.91H17.6l.28,0c-.08.21-.15.38-.22.55L13.46,23,8.67,33.62c-.07.15-.14.3-.22.44a1.09,1.09,0,0,1-1,.6H1.91l-.28,0" transform="translate(-1.63 -4.85)"/><path class="cls-1" d="M36.05,11.15H12.24c.08-.28.13-.5.21-.71A8.86,8.86,0,0,1,16.24,6a7.27,7.27,0,0,1,3.83-1.07c3.24,0,6.48-.08,9.72,0a6.9,6.9,0,0,1,6.57,5.84" transform="translate(-1.63 -4.85)"/><path class="cls-1" d="M35.66,25.14a11.47,11.47,0,0,1,.71-4.2,8.74,8.74,0,0,1,1.89-3,7.85,7.85,0,0,1,2.7-1.8,8.49,8.49,0,0,1,3.12-.61,7.46,7.46,0,0,1,5.84,2.33c1.4,1.54,2.1,3.86,2.1,6.93,0,.23,0,.49,0,.78s0,.55,0,.78H40a4.83,4.83,0,0,0,1.54,3.38,5.87,5.87,0,0,0,4,1.19,13.34,13.34,0,0,0,2.79-.27,11.82,11.82,0,0,0,2-.59l.55,3.43a5.64,5.64,0,0,1-1,.36,12.22,12.22,0,0,1-1.39.35c-.52.1-1.08.19-1.68.26a15.84,15.84,0,0,1-1.84.1,11,11,0,0,1-4.16-.71,7.77,7.77,0,0,1-2.91-2,8.22,8.22,0,0,1-1.7-3A12.2,12.2,0,0,1,35.66,25.14Zm12.17-1.88a5.57,5.57,0,0,0-.25-1.64,4,4,0,0,0-.71-1.35,3.26,3.26,0,0,0-1.14-.91A3.64,3.64,0,0,0,44.12,19a3.75,3.75,0,0,0-2.93,1.32,4.33,4.33,0,0,0-.78,1.35A7.11,7.11,0,0,0,40,23.26Z" transform="translate(-1.63 -4.85)"/><path class="cls-2" d="M100.9,34.13c-.81.21-1.86.42-3.15.64a25.63,25.63,0,0,1-4.27.33,9.49,9.49,0,0,1-3.65-.62,5.88,5.88,0,0,1-2.36-1.74,6.88,6.88,0,0,1-1.27-2.65,14.27,14.27,0,0,1-.38-3.38V16.55H90v9.5a7.63,7.63,0,0,0,.85,4.16,3.32,3.32,0,0,0,3,1.25c.51,0,1,0,1.61-.07a9.14,9.14,0,0,0,1.27-.17V16.55h4.19Z" transform="translate(-1.63 -4.85)"/><path class="cls-2" d="M105.18,10.82l4.36-.72v5.7h6.7v3.64h-6.7v7.68a5.58,5.58,0,0,0,.72,3.24,2.85,2.85,0,0,0,2.45,1,7.91,7.91,0,0,0,2.11-.26,13.75,13.75,0,0,0,1.46-.46l.72,3.46a16.23,16.23,0,0,1-2,.66,10.73,10.73,0,0,1-2.89.35,9.15,9.15,0,0,1-3.37-.54A5.09,5.09,0,0,1,106.62,33a6.32,6.32,0,0,1-1.12-2.49,15.27,15.27,0,0,1-.32-3.34Z" transform="translate(-1.63 -4.85)"/><path class="cls-2" d="M53.91,34.65c.69-1.58,1.19-2.82,1.76-4,2.37-4.94,4.77-9.87,7.11-14.82a1.83,1.83,0,0,1,2.06-1.27c1.68.13,3.38,0,5.24,0a6.68,6.68,0,0,1-.26,1q-3.57,7.35-7.14,14.68c-.58,1.19-1.1,2.41-1.7,3.59-.17.33-.53.77-.82.78-2,.07-4,0-6.25,0" transform="translate(-1.63 -4.85)"/><path class="cls-2" d="M73.42,6.59c3,.2,6,.13,9,.24,2.26.08,4.52.24,6.77.37a4.26,4.26,0,0,1,.7.18c-.75,3.62-3.07,5.56-6.58,5.5-6.06-.1-12.12-.24-18.18-.37a6,6,0,0,1-.67-.11,8,8,0,0,1,3.8-4.65,9,9,0,0,1,5.19-1.16" transform="translate(-1.63 -4.85)"/><path class="cls-2" d="M68.61,23.52c.37-.71.72-1.36,1-2A7,7,0,0,0,70.39,20c.45-2.07,1.73-2.38,3.66-2.22,3.09.26,6.2.19,9.31.26,1.12,0,1.26.22.94,1.29a6.38,6.38,0,0,1-5.89,4.57c-3.06.08-6.13-.07-9.2-.13A2.25,2.25,0,0,1,68.61,23.52Z" transform="translate(-1.63 -4.85)"/><path class="cls-2" d="M63.56,34.16l2.64-5.61s0-.06.06-.1c.58-2.41,2.21-2.9,4.43-2.54a18.65,18.65,0,0,0,3.09,0C72.35,31,69,35,63.56,34.16Z" transform="translate(-1.63 -4.85)"/></svg>